Coordinates
version=1
nRows=17
nColumns=24
inDegrees=yes

Units are S.I. units (second, meters, Newtons, ...)
Angles are in degrees.

endheader
time	pelvis_tilt	pelvis_list	pelvis_rotation	pelvis_tx	pelvis_ty	pelvis_tz	hip_flexion_r	hip_adduction_r	hip_rotation_r	knee_angle_r	ankle_angle_r	subtalar_angle_r	mtp_angle_r	hip_flexion_l	hip_adduction_l	hip_rotation_l	knee_angle_l	ankle_angle_l	subtalar_angle_l	mtp_angle_l	lumbar_extension	lumbar_bending	lumbar_rotation
      1.39600000	      1.02636843	      6.27238671	     -4.57209349	      0.24510592	      1.02061537	      0.31659778	     13.44997132	     -6.59367744	      1.81176996	    -61.84372596	      4.92297283	    -15.53856101	     -1.69700823	      5.23600058	     11.17652751	     -0.18577492	     -8.33367777	      0.89237660	    -17.45226971	      1.07740916	     -4.66016911	     -8.27808786	      6.54300563
      1.40016667	      1.03821795	      6.15296937	     -4.41579425	      0.25005921	      1.02133396	      0.31648936	     13.86742294	     -6.42342344	      1.74876711	    -61.19925525	      5.14608471	    -15.44495514	     -1.70446413	      4.69696092	     11.08950795	      0.06176788	     -7.97046366	      0.97840921	    -17.45068659	      1.02985123	     -4.73625864	     -8.16906823	      6.12837973
      1.40433333	      1.01058177	      6.02471392	     -4.25452353	      0.25501153	      1.02196194	      0.31638844	     14.31469229	     -6.23987551	      1.68013041	    -60.51064984	      5.37031362	    -15.36899677	     -1.70917850	      4.20853364	     10.98247241	      0.27287367	     -7.62051623	      1.04870866	    -17.40798609	      0.98408398	     -4.75894684	     -8.03102181	      5.83988468
      1.40850000	      1.00724969	      5.90386999	     -4.09054108	      0.25994545	      1.02257894	      0.31629909	     14.72508149	     -6.07033901	      1.60171401	    -59.78415287	      5.58969807	    -15.28499795	     -1.71205977	      3.69583925	     10.88071829	      0.47882835	     -7.26879658	      1.11912009	    -17.35285554	      0.93642035	     -4.81552308	     -7.90744016	      5.53645125
      1.41266667	      0.97097220	      5.77773668	     -3.92032470	      0.26487990	      1.02312981	      0.31621457	     15.15507480	     -5.89140603	      1.52289935	    -59.01068083	      5.80564732	    -15.20744788	     -1.71074125	      3.23138473	     10.76453415	      0.65212334	     -6.94055639	      1.17073429	    -17.25442702	      0.91350907	     -4.82720447	     -7.77938256	      5.35174449
      1.41683333	      0.98076759	      5.66677013	     -3.74306727	      0.26979769	      1.02368385	      0.31610750	     15.52716595	     -5.74697501	      1.41766875	    -58.20781865	      5.97772200	    -15.12257736	     -1.71116124	      2.70135420	     10.67102420	      0.89498463	     -6.57828654	      1.26599238	    -17.22869188	      0.86319630	     -4.90245693	     -7.66293847	      4.91663798
      1.42100000	      0.96006566	      5.55454923	     -3.56358122	      0.27469113	      1.02416453	      0.31602036	     15.92091912	     -5.59470338	      1.31955014	    -57.36671161	      6.16025781	    -15.04469162	     -1.70982353	      2.21899977	     10.56677525	      1.10829327	     -6.23721411	      1.32207487	    -17.17194785	      0.80918501	     -4.94407068	     -7.55247441	      4.60053976
      1.42516667	      0.92105705	      5.42969332	     -3.37698214	      0.27960611	      1.02459421	      0.31593092	     16.31300146	     -5.43330170	      1.20402382	    -56.47692836	      6.32346751	    -14.96516864	     -1.70743353	      1.76859289	     10.44204363	      1.28242723	     -5.92377023	      1.39014571	    -17.07834519	      0.78396539	     -4.95147999	     -7.41719379	      4.40493920
      1.42933333	      0.92064370	      5.33173418	     -3.19326957	      0.28449401	      1.02501235	      0.31583636	     16.66287232	     -5.31317216	      1.08123520	    -55.57081793	      6.44816110	    -14.90710663	     -1.70511579	      1.26387154	     10.34967444	      1.50819366	     -5.57710006	      1.49088047	    -17.03462096	      0.73626036	     -5.01365147	     -7.31367174	      3.98434111
      1.43350000	      0.88802786	      5.22133761	     -3.00319857	      0.28937483	      1.02536201	      0.31574948	     17.02865795	     -5.17637052	      0.95713548	    -54.62011014	      6.56776939	    -14.85657678	     -1.70230535	      0.80838589	     10.23596585	      1.71441251	     -5.25718599	      1.56647688	    -16.97345383	      0.68999066	     -5.03689684	     -7.20013754	      3.66912375
      1.43766667	      0.86854167	      5.12412753	     -2.81675331	      0.29423349	      1.02567322	      0.31568194	     17.37433005	     -5.05676602	      0.83374491	    -53.64814617	      6.68186968	    -14.81143349	     -1.69909313	      0.34295795	     10.13347021	      1.91755099	     -4.93763651	      1.63353771	    -16.90559215	      0.63843471	     -5.08421491	     -7.10663485	      3.34012456
      1.44183333	      0.82028832	      5.01898902	     -2.63091155	      0.29910733	      1.02591357	      0.31560867	     17.73426336	     -4.93280157	      0.70170863	    -52.63687233	      6.78323672	    -14.75279956	     -1.69689716	     -0.07591078	     10.01680037	      2.07624277	     -4.64909404	      1.70327138	    -16.80844988	      0.61593006	     -5.08191759	     -6.99033840	      3.16099584
      1.44600000	      0.80721406	      4.93142820	     -2.44474008	      0.30396200	      1.02615515	      0.31553865	     18.04846276	     -4.83459534	      0.56496765	    -51.60343699	      6.82165966	    -14.75667012	     -1.69554269	     -0.54481934	      9.92060121	      2.28965568	     -4.33251458	      1.80995021	    -16.76319691	      0.57061023	     -5.13154079	     -6.90507881	      2.74209035
      1.45016667	      0.75551942	      4.84928995	     -2.26070064	      0.30881337	      1.02628488	      0.31547970	     18.39715385	     -4.74263788	      0.43001847	    -50.55069839	      6.86961820	    -14.73625598	     -1.69353176	     -0.95506226	      9.82425992	      2.47495758	     -4.04484215	      1.89472936	    -16.69839600	      0.52643064	     -5.13216932	     -6.82235108	      2.44330811
      1.45433333	      0.72254063	      4.76887699	     -2.08239012	      0.31365336	      1.02640949	      0.31543203	     18.71134469	     -4.65588674	      0.29380836	    -49.46485802	      6.89244100	    -14.73326799	     -1.69261164	     -1.38226650	      9.72765152	      2.65235765	     -3.76017760	      1.98206840	    -16.63011664	      0.48447400	     -5.15584388	     -6.74149610	      2.15695937
      1.45850000	      0.66291415	      4.69638863	     -1.90482134	      0.31849546	      1.02644620	      0.31538903	     19.04508867	     -4.58002682	      0.15559575	    -48.35845054	      6.89185418	    -14.73816683	     -1.69257087	     -1.77142063	      9.63688546	      2.82478784	     -3.49241353	      2.08021979	    -16.56699914	      0.44654425	     -5.14523644	     -6.66797311	      1.88161645
      1.46266667	      0.60259827	      4.61981403	     -1.73172556	      0.32333779	      1.02645762	      0.31535591	     19.36218711	     -4.50268813	      0.01553797	    -47.21658677	      6.89417241	    -14.71819319	     -1.69357284	     -2.14824823	      9.53824859	      2.96931030	     -3.24532927	      2.15616650	    -16.48113186	      0.42526461	     -5.13348090	     -6.58827652	      1.69777790
